<svg display="none" xmlns="http://www.w3.org/2000/svg">
  <!-- <symbol id="jslogo" viewBox="0 0 32 32">
    <path
      d="M.774 22.15c0-.48.067-.885.2-1.213a2.17 2.17 0 0 1 .583-.813 2.31 2.31 0 0 1 .86-.445c.328-.092.68-.138 1.06-.138a3.62 3.62 0 0 1 1.013.138c.327.092.614.24.86.445s.44.476.583.813c.143.328.215.732.215 1.213 0 .46-.072.854-.215 1.182a2.27 2.27 0 0 1-.583.813c-.245.215-.532.368-.86.46a3.29 3.29 0 0 1-1.013.153c-.38 0-.732-.05-1.06-.153a2.19 2.19 0 0 1-.86-.46c-.246-.215-.44-.486-.583-.813-.133-.327-.2-.72-.2-1.182m8.656 9.746c-.5 0-.998-.036-1.52-.107s-.957-.164-1.304-.276V27.83c.317.102.614.174.9.215a5.27 5.27 0 0 0 .936.077c.256 0 .496-.04.72-.123a1.16 1.16 0 0 0 .6-.414c.174-.194.312-.46.414-.798.102-.327.153-.752.153-1.274V7.188h4.68v19.015c0 .788-.102 1.524-.307 2.2a4.43 4.43 0 0 1-.967 1.8c-.44.522-1.013.93-1.72 1.228s-1.565.445-2.578.445m.7-29.144c0-.44.067-.803.2-1.1s.312-.532.537-.706c.235-.184.506-.312.813-.384.317-.072.65-.107.998-.107a4.29 4.29 0 0 1 .982.107 1.94 1.94 0 0 1 .798.384 1.74 1.74 0 0 1 .552.706c.143.287.215.65.215 1.1 0 .43-.072.793-.215 1.1-.133.297-.317.537-.552.72a2.22 2.22 0 0 1-.798.384 4.29 4.29 0 0 1-.982.108c-.348 0-.68-.035-.998-.108a2.39 2.39 0 0 1-.813-.384c-.225-.184-.404-.425-.537-.72s-.2-.66-.2-1.1m21.12 16.518c0 .9-.164 1.688-.5 2.363a4.54 4.54 0 0 1-1.397 1.688c-.604.45-1.335.788-2.195 1.013s-1.82.338-2.885.338c-.563 0-1.085-.02-1.565-.06a11.14 11.14 0 0 1-1.366-.169c-.43-.082-.844-.184-1.243-.307a10.48 10.48 0 0 1-1.212-.46V19.79c.43.215.88.4 1.35.583l1.427.46 1.366.292a7.91 7.91 0 0 0 1.243.107c.42 0 .778-.035 1.074-.107.297-.082.537-.2.72-.322.194-.143.333-.307.414-.5a1.42 1.42 0 0 0 .138-.614c0-.215-.036-.404-.107-.568-.06-.174-.2-.353-.445-.537-.235-.194-.583-.4-1.044-.644l-1.826-.9-1.95-.998c-.542-.338-.992-.7-1.35-1.12a4.17 4.17 0 0 1-.783-1.397c-.174-.532-.26-1.16-.26-1.888 0-.798.153-1.494.46-2.087a4.1 4.1 0 0 1 1.304-1.504c.563-.4 1.238-.696 2.026-.9.798-.205 1.683-.307 2.655-.307 1.023 0 1.995.118 2.916.353s1.867.588 2.84 1.06l-1.412 3.315c-.778-.368-1.52-.67-2.225-.905a6.67 6.67 0 0 0-2.118-.353c-.634 0-1.095.113-1.38.338-.276.225-.414.532-.414.92 0 .205.036.4.107.553.072.154.215.317.43.5.215.164.517.348.905.552l1.52.72 1.964.95a6.68 6.68 0 0 1 1.504 1.059 4.13 4.13 0 0 1 .967 1.397c.225.532.338 1.177.338 1.934" />
  </symbol> -->
  <symbol id="css" viewBox="0 0 32 32">
    <polygon points="5.902 27.201 3.656 2 28.344 2 26.095 27.197 15.985 30 5.902 27.201" style="fill:#1572b6" />
    <polygon points="16 27.858 24.17 25.593 26.092 4.061 16 4.061 16 27.858" style="fill:#33a9dc" />
    <polygon
      points="16 13.191 20.09 13.191 20.372 10.026 16 10.026 16 6.935 16.011 6.935 23.75 6.935 23.676 7.764 22.917 16.282 16 16.282 16 13.191"
      style="fill:#fff" />
    <polygon
      points="16.019 21.218 16.005 21.222 12.563 20.292 12.343 17.827 10.67 17.827 9.24 17.827 9.673 22.68 16.004 24.438 16.019 24.434 16.019 21.218"
      style="fill:#ebebeb" />
    <polygon
      points="19.827 16.151 19.455 20.29 16.008 21.22 16.008 24.436 22.344 22.68 22.391 22.158 22.928 16.151 19.827 16.151"
      style="fill:#fff" />
    <polygon
      points="16.011 6.935 16.011 8.855 16.011 10.018 16.011 10.026 8.555 10.026 8.555 10.026 8.545 10.026 8.483 9.331 8.342 7.764 8.268 6.935 16.011 6.935"
      style="fill:#ebebeb" />
    <polygon
      points="16 13.191 16 15.111 16 16.274 16 16.282 12.611 16.282 12.611 16.282 12.601 16.282 12.539 15.587 12.399 14.02 12.325 13.191 16 13.191"
      style="fill:#ebebeb" />
  </symbol>
  <symbol id="html" viewBox="0 0 32 32">
    <polygon points="5.902 27.201 3.655 2 28.345 2 26.095 27.197 15.985 30 5.902 27.201" style="fill:#e44f26" />
    <polygon points="16 27.858 24.17 25.593 26.092 4.061 16 4.061 16 27.858" style="fill:#f1662a" />
    <polygon
      points="16 13.407 11.91 13.407 11.628 10.242 16 10.242 16 7.151 15.989 7.151 8.25 7.151 8.324 7.981 9.083 16.498 16 16.498 16 13.407"
      style="fill:#ebebeb" />
    <polygon
      points="16 21.434 15.986 21.438 12.544 20.509 12.324 18.044 10.651 18.044 9.221 18.044 9.654 22.896 15.986 24.654 16 24.65 16 21.434"
      style="fill:#ebebeb" />
    <polygon
      points="15.989 13.407 15.989 16.498 19.795 16.498 19.437 20.507 15.989 21.437 15.989 24.653 22.326 22.896 22.372 22.374 23.098 14.237 23.174 13.407 22.341 13.407 15.989 13.407"
      style="fill:#fff" />
    <polygon
      points="15.989 7.151 15.989 9.071 15.989 10.235 15.989 10.242 23.445 10.242 23.445 10.242 23.455 10.242 23.517 9.548 23.658 7.981 23.732 7.151 15.989 7.151"
      style="fill:#fff" />
  </symbol>
  <symbol id="jest" viewBox="0 0 32 32">
    <path
      d="M27.089,15.786a2.606,2.606,0,0,0-2.606-2.606,2.633,2.633,0,0,0-.274.014l3.58-10.558H12.576l3.575,10.549c-.052,0-.105-.005-.158-.005a2.606,2.606,0,0,0-.791,5.09,11.383,11.383,0,0,1-2.049,2.579A10.436,10.436,0,0,1,9.5,23.116a3.323,3.323,0,0,1-1.665-4.23c.077-.18.155-.362.229-.544a2.607,2.607,0,1,0-2.09-.4,20.134,20.134,0,0,0-1.889,4.787c-.354,2.135,0,4.4,1.845,5.681,4.3,2.981,8.969-1.848,13.891-3.061,1.784-.44,3.742-.369,5.313-1.279a4.45,4.45,0,0,0,2.179-3.088,4.639,4.639,0,0,0-.831-3.522,2.6,2.6,0,0,0,.606-1.671ZM18.6,15.8v-.009a2.6,2.6,0,0,0-1.256-2.23L20.188,7.8l2.85,5.814a2.6,2.6,0,0,0-1.161,2.169c0,.019,0,.038,0,.057L18.6,15.8Z"
      style="fill:#c63d14" />
    <path
      d="M27.726,15.786A3.247,3.247,0,0,0,25.083,12.6L28.677,2H11.689l3.6,10.621a3.241,3.241,0,0,0-1,5.918,10.865,10.865,0,0,1-1.568,1.846,9.827,9.827,0,0,1-3.16,2.03,2.656,2.656,0,0,1-1.134-3.28l.04-.093.074-.175a3.245,3.245,0,1,0-3.34-.754c-.108.231-.222.465-.339.706a14,14,0,0,0-1.4,3.8c-.465,2.8.285,5.043,2.111,6.308A5.751,5.751,0,0,0,8.934,30c2.132,0,4.289-1.071,6.4-2.119a23.672,23.672,0,0,1,4.642-1.918c.577-.142,1.171-.228,1.8-.319a9.977,9.977,0,0,0,3.68-1.028,5.09,5.09,0,0,0,2.487-3.53,5.255,5.255,0,0,0-.691-3.613,3.223,3.223,0,0,0,.475-1.688Zm-1.273,0a1.97,1.97,0,1,1-1.97-1.97,1.972,1.972,0,0,1,1.97,1.97ZM26.9,3.273l-3.174,9.36a3.2,3.2,0,0,0-.4.125l-3.135-6.4L17.046,12.72a3.2,3.2,0,0,0-.419-.114L13.464,3.273ZM15.993,13.816a1.97,1.97,0,1,1-1.97,1.97,1.972,1.972,0,0,1,1.97-1.97Zm-8.522.019A1.97,1.97,0,1,1,5.5,15.8a1.972,1.972,0,0,1,1.97-1.97Zm19.217,7.034a3.82,3.82,0,0,1-1.871,2.646,8.9,8.9,0,0,1-3.223.869c-.632.091-1.285.185-1.924.343a24.587,24.587,0,0,0-4.9,2.013c-3.164,1.571-5.9,2.928-8.472,1.143-1.887-1.308-1.8-3.728-1.58-5.054A12.82,12.82,0,0,1,6,19.376c.092-.189.182-.375.27-.559a3.215,3.215,0,0,0,.838.21,3.965,3.965,0,0,0,2.1,4.655l.245.126.259-.092a11.029,11.029,0,0,0,3.875-2.4,12.078,12.078,0,0,0,1.918-2.319,3.241,3.241,0,0,0,2.64-5.627l2.038-4.121,2.059,4.2a3.24,3.24,0,0,0,4.088,5,3.957,3.957,0,0,1,.355,2.422Z"
      style="fill:#fff" />
  </symbol>
  <symbol id="typescript" viewBox="0 0 512 512">
    <path
      d="M373.6465149,289.5476379H312.390686v189.7456665l-33.7347107-0.0000305v-189.745636h-61.1287994v-31.37677h156.119339V289.5476379z M507.3800964,398.535675c-21.3193054-42.9439697-71.9799805-45.6103516-86.7124634-72.728302c-16.2763367-43.9219055,50.8490906-51.8579102,83.0995178-22.2676086v-39.4264526c-13.7410278-8.8743286-35.590271-9.8278809-50.9179993-9.0001831c-40.4500732,2.1843262-67.6317749,25.6871338-67.2262573,60.6980591c-1.7426453,48.8711548,54.0643311,61.4549255,82.0871887,84.0719299c19.0316162,16.1492004,17.6693726,55.3132019-29.3473511,51.4010315c-15.0501709-1.3822937-34.3663025-4.2957764-53.0340576-24.6832886v41.9417114c34.2955017,22.29245,93.2791138,18.2008667,113.8417053-8.592804C511.3911438,444.0257263,516.4275513,422.6948853,507.3800964,398.535675z"
      style="fill: black" />
    <path
      d="M178.9164124,397.8771362l17.4700012,60.6674805h52.6664429V335.5990601c-24.9207764,8.6644287-53.5789795,7.3724976-79.5404053-7.5945435c-64.1425781-36.9789429-64.1425781-129.9281006-0.000061-166.9069824c58.3208008-33.6226196,130.2502441,1.7504272,142.8283081,64.0403442l62.4865112-0.000061c-2.4333496-20.2295532-8.6228027-38.9351196-17.7116089-55.640625l35.4249878-62.904541l-35.3077393-35.3077393l-62.3120728,35.6037598c-10.0150146-5.6047974-20.62323-10.1500854-31.6339722-13.5203247l-18.8426514-68.1796875h-50.0192871l-18.3114014,66.7798462c-11.7113647,3.2211914-23.3220825,7.8920898-34.6424561,14.1226807l-59.3444214-33.335144l-35.3077393,35.3078003L79.74823,166.9365234c-6.2023315,11.0975952-10.956665,22.8284912-14.2806396,34.8983765L0.7225952,220.852478v50.0193481l65.0929565,17.6815186c3.4159546,12.0096436,8.274292,23.6650391,14.5515137,34.6882935L48.289978,383.170105l35.3077393,35.3077393l59.3304443-34.659668C154.6939087,390.1408691,166.756073,394.7758179,178.9164124,397.8771362z"
      style="fill: black" />
  </symbol>
  <symbol id="nodejs" viewBox="0 0 128 128">
    <path fill="#83CD29"
      d="M112.678 30.334l-44.143-25.605c-2.781-1.584-6.424-1.584-9.227 0l-44.488 25.605c-2.869 1.651-4.82 4.754-4.82 8.073v51.142c0 3.319 1.992 6.423 4.862 8.083l11.729 6.688c5.627 2.772 7.186 2.772 9.746 2.772 8.334 0 12.662-5.039 12.662-13.828v-50.49c.001-.713.446-1.774-.255-1.774h-5.622c-.712 0-2.122 1.061-2.122 1.773v50.49c0 3.896-3.616 7.773-10.202 4.48l-12.122-7.013c-.422-.23-.676-.693-.676-1.181v-51.142c0-.482.463-.966.891-1.213l44.378-25.561c.415-.235 1.002-.235 1.415 0l43.963 25.555c.421.253.354.722.354 1.219v51.142c0 .488.092.963-.323 1.198l-44.133 25.576c-.378.227-.87.227-1.285 0l-11.317-6.749c-.341-.198-.752-.269-1.08-.086-3.145 1.783-3.729 2.02-6.679 3.043-.727.253-1.799.692.408 1.929l14.798 8.754c1.416.82 3.027 1.246 4.647 1.246 1.642 0 3.249-.426 4.666-1.246l43.976-25.582c2.871-1.672 4.322-4.764 4.322-8.083v-51.142c-.001-3.319-1.452-6.414-4.323-8.073zM77.727 81.445c-11.727 0-14.309-3.235-15.17-9.066-.102-.628-.634-1.379-1.274-1.379h-5.73c-.709 0-1.28.86-1.28 1.566 0 7.466 4.06 16.512 23.454 16.512 14.038 0 22.088-5.455 22.088-15.109 0-9.572-6.467-12.084-20.082-13.886-13.762-1.819-15.16-2.738-15.16-5.962 0-2.658 1.184-6.203 11.374-6.203 9.104 0 12.46 1.954 13.841 8.091.119.577.646.991 1.241.991h5.754c.354 0 .691-.143.939-.396.241-.272.367-.613.336-.979-.893-10.569-7.913-15.494-22.112-15.494-12.632 0-20.166 5.334-20.166 14.275 0 9.698 7.497 12.378 19.622 13.577 14.505 1.422 15.633 3.542 15.633 6.395 0 4.956-3.978 7.067-13.308 7.067z" />
  </symbol>
  <symbol id="react" viewBox="0 0 128 128">
    <g fill="#61DAFB">
      <circle cx="64" cy="64" r="11.4" />
      <path
        d="M107.3 45.2c-2.2-.8-4.5-1.6-6.9-2.3.6-2.4 1.1-4.8 1.5-7.1 2.1-13.2-.2-22.5-6.6-26.1-1.9-1.1-4-1.6-6.4-1.6-7 0-15.9 5.2-24.9 13.9-9-8.7-17.9-13.9-24.9-13.9-2.4 0-4.5.5-6.4 1.6-6.4 3.7-8.7 13-6.6 26.1.4 2.3.9 4.7 1.5 7.1-2.4.7-4.7 1.4-6.9 2.3-12.5 4.8-19.3 11.4-19.3 18.8s6.9 14 19.3 18.8c2.2.8 4.5 1.6 6.9 2.3-.6 2.4-1.1 4.8-1.5 7.1-2.1 13.2.2 22.5 6.6 26.1 1.9 1.1 4 1.6 6.4 1.6 7.1 0 16-5.2 24.9-13.9 9 8.7 17.9 13.9 24.9 13.9 2.4 0 4.5-.5 6.4-1.6 6.4-3.7 8.7-13 6.6-26.1-.4-2.3-.9-4.7-1.5-7.1 2.4-.7 4.7-1.4 6.9-2.3 12.5-4.8 19.3-11.4 19.3-18.8s-6.8-14-19.3-18.8zm-14.8-30.5c4.1 2.4 5.5 9.8 3.8 20.3-.3 2.1-.8 4.3-1.4 6.6-5.2-1.2-10.7-2-16.5-2.5-3.4-4.8-6.9-9.1-10.4-13 7.4-7.3 14.9-12.3 21-12.3 1.3 0 2.5.3 3.5.9zm-11.2 59.3c-1.8 3.2-3.9 6.4-6.1 9.6-3.7.3-7.4.4-11.2.4-3.9 0-7.6-.1-11.2-.4-2.2-3.2-4.2-6.4-6-9.6-1.9-3.3-3.7-6.7-5.3-10 1.6-3.3 3.4-6.7 5.3-10 1.8-3.2 3.9-6.4 6.1-9.6 3.7-.3 7.4-.4 11.2-.4 3.9 0 7.6.1 11.2.4 2.2 3.2 4.2 6.4 6 9.6 1.9 3.3 3.7 6.7 5.3 10-1.7 3.3-3.4 6.6-5.3 10zm8.3-3.3c1.5 3.5 2.7 6.9 3.8 10.3-3.4.8-7 1.4-10.8 1.9 1.2-1.9 2.5-3.9 3.6-6 1.2-2.1 2.3-4.2 3.4-6.2zm-25.6 27.1c-2.4-2.6-4.7-5.4-6.9-8.3 2.3.1 4.6.2 6.9.2 2.3 0 4.6-.1 6.9-.2-2.2 2.9-4.5 5.7-6.9 8.3zm-18.6-15c-3.8-.5-7.4-1.1-10.8-1.9 1.1-3.3 2.3-6.8 3.8-10.3 1.1 2 2.2 4.1 3.4 6.1 1.2 2.2 2.4 4.1 3.6 6.1zm-7-25.5c-1.5-3.5-2.7-6.9-3.8-10.3 3.4-.8 7-1.4 10.8-1.9-1.2 1.9-2.5 3.9-3.6 6-1.2 2.1-2.3 4.2-3.4 6.2zm25.6-27.1c2.4 2.6 4.7 5.4 6.9 8.3-2.3-.1-4.6-.2-6.9-.2-2.3 0-4.6.1-6.9.2 2.2-2.9 4.5-5.7 6.9-8.3zm22.2 21l-3.6-6c3.8.5 7.4 1.1 10.8 1.9-1.1 3.3-2.3 6.8-3.8 10.3-1.1-2.1-2.2-4.2-3.4-6.2zm-54.5-16.2c-1.7-10.5-.3-17.9 3.8-20.3 1-.6 2.2-.9 3.5-.9 6 0 13.5 4.9 21 12.3-3.5 3.8-7 8.2-10.4 13-5.8.5-11.3 1.4-16.5 2.5-.6-2.3-1-4.5-1.4-6.6zm-24.7 29c0-4.7 5.7-9.7 15.7-13.4 2-.8 4.2-1.5 6.4-2.1 1.6 5 3.6 10.3 6 15.6-2.4 5.3-4.5 10.5-6 15.5-13.8-4-22.1-10-22.1-15.6zm28.5 49.3c-4.1-2.4-5.5-9.8-3.8-20.3.3-2.1.8-4.3 1.4-6.6 5.2 1.2 10.7 2 16.5 2.5 3.4 4.8 6.9 9.1 10.4 13-7.4 7.3-14.9 12.3-21 12.3-1.3 0-2.5-.3-3.5-.9zm60.8-20.3c1.7 10.5.3 17.9-3.8 20.3-1 .6-2.2.9-3.5.9-6 0-13.5-4.9-21-12.3 3.5-3.8 7-8.2 10.4-13 5.8-.5 11.3-1.4 16.5-2.5.6 2.3 1 4.5 1.4 6.6zm9-15.6c-2 .8-4.2 1.5-6.4 2.1-1.6-5-3.6-10.3-6-15.6 2.4-5.3 4.5-10.5 6-15.5 13.8 4 22.1 10 22.1 15.6 0 4.7-5.8 9.7-15.7 13.4z" />
    </g>
  </symbol>
  <symbol id="linkidin" viewBox="0 0 24 24">
    <g>
      <path
        d="M19 0h-14c-2.761 0-5 2.239-5 5v14c0 2.761 2.239 5 5 5h14c2.762 0 5-2.239 5-5v-14c0-2.761-2.238-5-5-5zm-11 19h-3v-11h3v11zm-1.5-12.268c-.966 0-1.75-.79-1.75-1.764s.784-1.764 1.75-1.764 1.75.79 1.75 1.764-.783 1.764-1.75 1.764zm13.5 12.268h-3v-5.604c0-3.368-4-3.113-4 0v5.604h-3v-11h3v1.765c1.396-2.586 7-2.777 7 2.476v6.759z" />
    </g>
  </symbol>
  <symbol id="phone" viewBox="0 0 24 24">
    <g>
      <path
        d="M18.1182 14.702L14 15.5C11.2183 14.1038 9.5 12.5 8.5 10L9.26995 5.8699L7.81452 2L4.0636 2C2.93605 2 2.04814 2.93178 2.21654 4.04668C2.63695 6.83 3.87653 11.8765 7.5 15.5C11.3052 19.3052 16.7857 20.9564 19.802 21.6127C20.9668 21.8662 22 20.9575 22 19.7655L22 16.1812L18.1182 14.702Z"
        stroke="currentColor" stroke-linecap="round" stroke-linejoin="round" />
    </g>
  </symbol>
  <symbol id="mail" viewBox="0 0 512 512">
    <g>
      <path
        d="m464 64h-416c-26.51 0-48 21.49-48 48v288c0 26.51 21.49 48 48 48h416c26.51 0 48-21.49 48-48v-288c0-26.51-21.49-48-48-48zm0 48v40.805c-22.422 18.259-58.168 46.651-134.587 106.49-16.841 13.247-50.201 45.072-73.413 44.701-23.208.375-56.579-31.459-73.413-44.701-76.407-59.83-112.162-88.228-134.587-106.49v-40.805zm-416 288v-185.602c22.914 18.251 55.409 43.862 104.938 82.646 21.857 17.205 60.134 55.186 103.062 54.955 42.717.231 80.509-37.199 103.053-54.947 49.528-38.783 82.032-64.401 104.947-82.653v185.601z" />
    </g>
  </symbol>
  <symbol id="github" viewBox="0 0 425 512">
    <g>
      <path
        d="M268 267q7 0 12.25 6t7.25 13q3.5 10.5 2.25 21.5t-9.25 20q-5.5 6-12.5 6-7.5 0-12.75-6t-7.75-13Q245 304 246.25 293t8.75-20q6-6 13-6zm-111 0q7 0 12.25 6t7.75 13q3 10.5 1.75 21.5t-9.25 20q-5.5 6-12.5 6-7.5 0-12.75-6t-7.75-13Q134 304 135.25 293t8.75-20q6-6 13-6zm176-61q23.5 27 23.5 69 0 36-10.5 57.5-7 13-18.5 22.75T303 370q-6.5 2.5-13.75 4.75t-15.75 3.75-15.75 2.25T244 382t-13.75.75T215 383h-13l-11.5-.5-12-.75-13.5-1.25q-13.5-1.5-26.5-5.5-18-5-34.75-15T79 332.5Q68 311 68 275q0-41 23.5-69-4.5-14-4.5-29 0-20 9-38 19 0 32.5 7 7.5 3.5 15.5 8.75T161.5 167q25.5-6 53.5-6 25 0 48.5 5.5 17.5-14 32.5-21 13.5-6.5 33-6.5 8.5 18.5 8.5 38 0 15-4.5 29zm-35 139q8.5-7 14-18.25t5.5-26.25q0-21-12-35.5-11-14.5-32-14.5-4 0-12.25.75T239.5 254q-6 1-13 1.5t-14 .5q-7.5 0-14.5-.5t-13-1.5q-13-2-21.25-2.75t-12.25-.75q-21 0-32.5 14.5-12 14.5-12 35.5 0 15 5.5 26.25t14 18.25q9 6.5 21 10 13 4 24.5 5.25t25.5 1.25H227q14.5 0 25.75-1.25T277 355q12-3.5 21-10z" />
    </g>
  </symbol>
  <!-- <symbol id="git" viewBox="0 0 200 200">
    <g>
      <path
        d="M195.626,134.303c-0.267-0.037-0.533-0.073-0.8-0.108c0.146,2.545-0.441,5.101,0.352,8.203   c0.251-0.905,0.433-1.257,0.435-1.608C195.643,138.626,195.626,136.463,195.626,134.303z"
        fill="#181617" />
      <path
        d="M191.452,42.411c0.391-1.236,0.285-2.495-0.269-3.865c-0.244,1.217-0.508,2.433-0.713,3.657   c-0.027,0.165,0.226,0.507,0.389,0.536C191.041,42.771,191.399,42.579,191.452,42.411z"
        fill="#181617" />
      <path
        d="M5.024,59.124c-0.614,0.2-0.607,0.709-0.638,1.189c-0.032,0.478-0.008,0.961-0.008,1.441   c0.172,0.032,0.346,0.067,0.519,0.098c0.167-0.445,0.353-0.886,0.494-1.341C5.664,59.624,5.483,58.973,5.024,59.124z"
        fill="#181617" />
      <path d="M8.254,78.159c0.005-0.008,0.008-0.016,0.013-0.025c-0.012,0-0.024,0.002-0.037,0.002L8.254,78.159z"
        fill="#181617" />
      <path
        d="M35.685,17.75c0.435,0,0.468-0.4,0.477-0.741c-0.075-0.382-0.215-0.727-0.675-0.516   c-0.184,0.083-0.374,0.35-0.394,0.549C35.056,17.421,35.304,17.749,35.685,17.75z"
        fill="#181617" />
      <path
        d="M147.505,15.036c0.474,0.201,0.978,0.232,1.428-0.099c0.048-0.035,0.021-0.176,0.027-0.272   c-0.435-0.364-0.931-0.325-1.418-0.166C147.167,14.623,147.145,14.883,147.505,15.036z"
        fill="#181617" />
      <path
        d="M188.635,23.35c0.05,0.199,0.245,0.361,0.374,0.538c0.108-0.199,0.273-0.387,0.317-0.601   c0.066-0.339,0.053-0.696,0.076-1.048c0.535-0.918,0.894-1.889,0.892-2.968c0.226-0.07,0.46-0.126,0.681-0.216   c0.533-0.217,0.701-0.69,0.474-1.135c-0.11-0.221-0.603-0.331-0.927-0.339c-0.526-0.016-0.855,0.341-1.039,0.824l-0.064,0.058   c-0.321,0.144-0.595,0.352-0.829,0.614c-1.26,1.477-1.26,1.477-0.078,3.229C188.547,22.653,188.545,23.014,188.635,23.35z"
        fill="#181617" />
      <path
        d="M194.197,158.961c-0.021,0.087,0.046,0.228,0.117,0.299c0.036,0.034,0.174-0.034,0.264-0.058   c0.021-0.112,0.099-0.26,0.053-0.336C194.461,158.584,194.284,158.621,194.197,158.961z"
        fill="#181617" />
      <path
        d="M156.701,14.991c0.085,0.022,0.2-0.069,0.302-0.108c-0.021-0.09-0.015-0.222-0.069-0.26   c-0.085-0.058-0.246-0.102-0.319-0.058C156.343,14.733,156.375,14.909,156.701,14.991z"
        fill="#181617" />
      <path
        d="M168.962,15.821c0.204-0.044,0.397-0.151,0.595-0.232c-0.078-0.085-0.156-0.171-0.229-0.251   c-0.219,0.091-0.416,0.174-0.611,0.258C168.799,15.675,168.899,15.835,168.962,15.821z"
        fill="#181617" />
      <path
        d="M190.314,50.022c-0.066,0.311,0.056,0.476,0.297,0.411c0.066-0.018,0.09-0.192,0.133-0.294   c-0.06-0.094-0.117-0.188-0.177-0.285C190.48,49.91,190.331,49.953,190.314,50.022z"
        fill="#181617" />
      <path d="M8.254,78.16L8.23,78.136c-0.016,0.018-0.032,0.035-0.048,0.053C8.208,78.18,8.229,78.169,8.254,78.16z"
        fill="#181617" />
      <path
        d="M7.907,78.481C8,78.384,8.09,78.286,8.182,78.188c-0.076,0.021-0.155,0.039-0.214,0.084   C7.922,78.307,7.926,78.409,7.907,78.481z"
        fill="#181617" />
      <path
        d="M191.608,137.203c0.313-1.8,0.354-3.595-0.011-5.395c0.401-1.634,0.273-3.323-0.139-4.863   c-0.333-1.246-0.365-2.474-0.549-3.705c-0.003-0.524-0.005-1.049-0.007-1.57c0.032-0.655,0.058-1.306-0.761-1.54   c-1.338-1.314-0.798-2.388,0.365-3.473c0.391-0.365-0.032-0.94-0.686-0.901c-0.362,0.021-0.715,0.202-1.075,0.313   c-0.005,0.005-0.009,0.01-0.017,0.014c0.008-0.004,0.012-0.009,0.017-0.016c0.099-0.642-0.386-1.321,0.63-1.857   c1.156-0.604,1.262-1.7,0.275-2.163c-1.124-0.526-0.929-0.936-0.314-1.535c0.73-0.712,0.425-1.316-0.044-1.958   c-0.002,0-0.002,0.002-0.002,0.002c0.019-0.556,0.034-1.11,0.053-1.666c-0.007-1.016-0.012-2.032-0.014-3.048   c-0.003,0.002-0.003,0.005-0.005,0.005c0.002,0,0.002-0.003,0.002-0.005c-0.817-2.077-0.8-2.077-0.737-4.64   c0.044-1.786,0.053-3.575,0.037-5.361c-0.01-0.884,0.027-1.809-0.745-2.477c-0.156-3.8-0.846-7.566-0.747-11.381   c0.044-1.684-0.236-3.3-0.832-4.868c0.905-0.907,1.402-1.909,0.735-3.18c0.154-0.182,0.187-0.38,0.097-0.599   c0.689-1.117,0.768-2.207-0.138-3.255c0.243-1.066,0.489-2.135,0.733-3.203c0-0.001,0-0.001,0-0.001   c-0.014-1.557-0.032-3.113-0.046-4.669c0,0-0.003,0-0.003-0.001c0.023-1.769,0.046-3.536,0.069-5.305   c0.25-1.191-0.207-2.214-0.761-3.212c0,0,0,0,0-0.001c-0.007-1.04-0.012-2.08-0.019-3.122c0.184-1.618,0.211-3.241-0.294-4.801   c-0.412-1.269-0.159-2.449,0.221-3.645c0.206-1.506,0.039-3.048,0.763-4.508c0.379-0.766,0.338-1.76-0.016-2.623   c-0.069-0.174-0.37-0.345-0.568-0.35c-0.211-0.004-0.591,0.161-0.616,0.301c-0.184,1.036-0.299,2.083-0.45,3.234   c-0.779-0.746-0.287-1.924-1.243-2.386c0.044-0.501,0.087-1.002,0.131-1.501c-0.131,0.071-0.273,0.103-0.423,0.093   c0.002-0.104,0.007-0.208,0.012-0.312c0.138,0.071,0.273,0.144,0.411,0.217c0.929-2.005,0.596-4.127,0.572-6.22   c1.271-1.956,0.733-4.133,0.756-6.243c-0.26-1.341-1.896-0.369-2.39-1.47c-0.623-1.392-1.86-1.24-2.947-0.722   c-1.79,0.854-3.583,1.308-5.537,0.72c0,0,0,0,0,0.001c0-0.001,0-0.001-0.002-0.001c-0.402-0.58-0.896-0.944-1.618-0.58   c-1.151,0.581-2.294,1.186-3.438,1.783c-0.805,0.42-1.487,0.232-2.097-0.392h0.003c0.071-0.372,0.202-0.745,0.192-1.113   c-0.009-0.351-0.064-0.825-0.289-1.001c-0.168-0.132-0.781,0.008-0.952,0.219c-0.712,0.899-1.726,0.954-2.71,1.131   c-0.238-0.049-0.479-0.101-0.717-0.154c-0.818-0.9-1.91-0.776-2.896-0.604c-3.174,0.551-6.38,0.518-9.577,0.666   c-2.793,0.01-5.551-0.019-8.213-1.167c-1-0.429-2.241-0.305-3.372-0.43c-0.51-0.778-1.328-0.692-2.08-0.697   c-3.854-0.03-7.709-0.025-11.563-0.048c-5.02-0.028-10.04-0.14-15.058-0.064c-1.547,0.022-2.999-0.763-4.574-0.292   c-1.914,0.574-3.806,0.245-5.657-0.38l0.001,0.001c-0.001,0-0.001-0.001-0.002-0.001c-0.441-0.046-0.886-0.091-1.329-0.137   c-0.109-0.037-0.215-0.061-0.315-0.075c-2.888-0.754-5.836-0.424-8.762-0.415c-3.277,0.008-6.49,0.998-9.792,0.64   c-3.254-1.193-6.627-0.826-9.951-0.601c-3.988,0.269-7.968,0.501-11.968,0.496c-2.041-0.003-4.136-0.101-6.058,0.861   c-1.913-0.045-3.799-0.34-5.723,0.262c-3.659,1.144-7.156,2.889-11.094,3.056c-0.617,0.025-1.217,0.4-1.825,0.615   c-0.235-0.12-0.481-0.156-0.741-0.119c-0.898-0.994-0.358-2.506-1.197-3.52c-1.974,0.669-1.991,0.663-3.15,1.984   c-0.541,0.617-1.024,0.67-1.568,0.124c-0.913-0.914-2.159-0.646-3.242-0.947c-0.52-0.145-1.116,0.037-1.385,0.455   c-1.237,1.933-3.217,2.661-5.22,3.378l0.001,0.001c-0.001,0-0.001,0-0.001,0c-0.58,0.101-1.149,0.224-1.485,0.787l0.162,0.212   c-0.001,0-0.001,0-0.001,0c-0.001,0.002-0.002,0.003-0.003,0.005c-0.053-0.072-0.106-0.146-0.158-0.217   c-1.707,0.409-2.813,1.399-3.076,3.195c0,0.001,0,0.001,0,0.002c-1.424,1.002-2.72,2.102-3.004,3.967v0.001   c-0.042,0.216-0.041,0.432,0.005,0.648c-0.078,1.401-1.208,2.613-0.818,4.071c0.326,1.222-0.042,2.088-0.739,3.12   c-0.931,1.376-1.457,3.012-0.029,4.525h0.001c-0.004,0.265-0.008,0.53-0.01,0.794c0,0,0,0,0-0.001   c-0.254,0.273-0.507,0.545-0.76,0.816h0.001c0,0.001-0.001,0.001-0.001,0.001c-0.216,0.962-0.571,1.92-0.599,2.889   c-0.021,0.645,0.224,1.594,1.346,0.954c0.461-0.228,0.922-0.457,1.384-0.684v-0.001c0.089,1.278,0.183,2.555,0.272,3.832   c0.001-0.002,0.002-0.006,0.004-0.008c-0.002,0.003-0.002,0.006-0.003,0.009c-0.146,0.229-0.179,0.473-0.1,0.732   c-0.04,0.772-0.082,1.545-0.121,2.318c0,0,0.001,0.001,0.001,0.002c-0.001-0.001-0.001-0.001-0.001-0.001   c-0.939,0.568-1.543,1.23-1.116,2.478c0.134,0.393-0.204,0.947-0.325,1.426c-0.001,0-0.001,0-0.001,0   c-0.013,0.248-0.022,0.498-0.032,0.745c-0.001,0.001-0.002,0.003-0.002,0.004c-0.391,0.247-0.617,0.59-0.625,1.06c0,0,0,0,0,0.001   c0.016,0.186-0.022,0.363-0.117,0.524c-1.272,1.293-0.961,2.889-0.469,4.263c0.569,1.583,0.354,2.964-0.213,4.406   c-0.001,0-0.001,0-0.002,0c0.229,0.737,0.459,1.474,0.689,2.209c0.26,0.523,0.52,1.043,0.778,1.564   c-0.448,0.103-0.669,0.392-0.685,0.846c-0.214,0.56-0.436,1.115-0.637,1.679c-0.216,0.603-0.23,1.173,0.353,1.605   c0.34,0.19,0.732,0.236,1.083,0.396c0.007,0.003,0.014,0.005,0.021,0.008h0.001c0.201,0.054,0.4,0.111,0.599,0.172   c-0.237,0.498-0.476,0.995-0.712,1.491c0.999-0.003,2.005-0.759,2.997,0.031c0.137,0.254,0.108,0.489-0.086,0.704   c-3.397,0.834-3.854,1.814-2.196,4.731c0.402,1.855,0.67,3.781,0.309,5.608c-0.503,2.538-0.499,5.045-0.326,7.583   c-0.156,0.623-0.436,1.241-0.453,1.868c-0.217,7.876-0.75,15.747-0.479,23.635c0.334,9.695,1.147,19.344,2.593,28.938   c0,0,0,0.002,0.001,0.002c-0.001,0-0.001-0.002-0.002-0.002c0.16,4.697,0.678,9.354,1.527,13.977   c-0.262,1.905,0.576,3.634,0.87,5.45c-0.315,1.611,0.847,2.994,0.702,4.58c0.09,1.611,0.779,2.929,2.008,3.954   c0.17,0.143,0.508,0.239,0.689,0.165c0.169-0.068,0.292-0.384,0.333-0.608c0.176-0.934-0.355-1.72-0.562-2.577   c-0.215-0.887-0.269-1.783,0.617-2.413c0.716,0.99,0.475,2.408,1.466,3.275c-0.009,2.121,1.446,3.429,2.697,4.845   c0.283,0.317,0.655,0.389,1.015,0.17c0.638-0.388,1.483-0.491,1.816-1.305c0.787-0.226,1.779,0.478,2.397-0.524   c0.237-0.097,0.475-0.195,0.711-0.292c0.51,0.019,1.021,0.039,1.529,0.058h0.001c0.607,0.45,1.263,0.844,1.802,1.363   c0.389,0.374,0.746,0.749,1.269,0.462c1.729-0.952,3.489,0.192,5.219-0.136c0.001,0,0.001,0,0.002,0   c0.345,0.156,0.683,0.42,1.039,0.45c4.866,0.391,9.734,0.786,14.607,1.099c2.046,0.129,4.105,0.049,6.158,0.085   c3.973,0.066,7.945,0.163,11.905-0.289v0.002c2.584,0.016,5.205,0.311,7.742-0.027c2.163-0.285,4.319,0.133,6.479-0.409   c2.282-0.57,4.624,0.239,6.939,0.294c6.471,0.156,12.949,0.301,19.419,0.182c3.078-0.055,6.098-0.262,9.205,0.094   c5.88,0.669,11.838,0.48,17.725,1.271c1.661,0.223,3.357,0.145,4.872,1.066c0.458,0.278,1.002,0.037,1.467-0.218   c2.829,0.057,5.663-0.224,8.488,0.284c1.149,0.207,2.28-0.172,3.391-0.569c1.07-0.384,2.236-0.927,3.291-0.805   c0.949,0.112,1.363-0.158,1.929-0.724c0.593-0.596,1.732-0.694,1.639-1.893c0.469-0.537,0.938-1.073,1.409-1.608   c0.574,0.14,1.145,0.299,1.724,0.418c0.99,0.209,1.041,0.147,1.289-1.395h-0.002c0.326-0.504,0.581-1.083,0.997-1.497   c0.927-0.919,1.657-0.864,3.085,0.076c-0.048,0.384-0.147,0.771-0.136,1.151c0.053,1.681,0.285,1.766,1.781,1.336   c1.297-0.37,1.536-1.205,1.446-2.34c0.915-2.092,2.454-3.744,3.866-5.489c0.751-0.246,0.949-0.791,0.822-1.508   c0.331,0.191,0.72,0.319,0.979,0.579c3.107,3.107,3.68,2.487,6.293,0.224c0.188-0.161,0.497-0.193,0.667-0.368   c0.82-0.844,1.632-1.768,0.954-3.018c-0.594-1.097,0.181-1.975,0.241-2.956c0.121-0.212,0.179-0.437,0.172-0.681   c0.956-2.039,0.869-2.225-1.556-3.296c-0.11-0.977-0.141-1.942,0.255-2.875c0.72,0.143,1.441,0.282,2.158,0.42   c0.391-1.508-1.11-1.931-1.48-2.926c-0.45-1.211-0.184-2.51-0.131-3.774l0.003-0.002c0.33-0.646,0.985-0.618,1.567-0.8   c1.427-0.448,1.469-0.604,0.698-2.321c0.01-0.007,0.019-0.014,0.027-0.021v-0.003c-0.112-0.915-0.109-1.836,0.609-2.515   c1.129-1.066,0.159-2.785,1.248-3.858c0.064-0.063-0.168-0.426-0.262-0.648C191.707,140.317,191.657,138.762,191.608,137.203z    M190.133,148.877l-0.027-0.024c-0.002,0-0.002,0-0.002-0.003L190.133,148.877z"
        fill="#181617" />
    </g>
    <g>
      <path
        d="M121.153,71.572c0-4.522-3.625-8.18-8.095-8.18c-4.469,0-8.101,3.658-8.101,8.18   c0,4.509,3.632,8.18,8.101,8.18C117.528,79.752,121.153,76.081,121.153,71.572z"
        fill="#FFFFFF" />
      <path
        d="M94.657,93.849H68.15c-0.688,0-1.237,0.564-1.237,1.247v12.958c0,0.683,0.548,1.238,1.237,1.238h10.343   V125.4c0,0-2.319,0.791-8.744,0.791c-7.584,0-18.161-2.773-18.161-26.027c0-23.279,11.032-26.342,21.366-26.342   c8.955,0,12.81,1.583,15.27,2.334c0.768,0.235,1.474-0.532,1.474-1.214l2.962-12.527c0-0.314-0.11-0.706-0.471-0.972   c-0.995-0.706-7.083-4.105-22.44-4.105c-17.707,0-35.853,7.529-35.853,43.718c0,36.198,20.787,41.605,38.298,41.605   c14.51,0,23.301-6.207,23.301-6.207c0.36-0.195,0.407-0.704,0.407-0.939v-40.42C95.903,94.413,95.339,93.849,94.657,93.849z"
        fill="#FFFFFF" />
      <path
        d="M121.758,123.309c0-2.006,0-36.057,0-36.057c0-0.689-0.547-1.237-1.23-1.237H105.65   c-0.691,0-1.294,0.697-1.294,1.378c0,0,0,43.392,0,51.664c0,1.504,0.934,1.959,2.162,1.959c0,0,6.354,0,13.414,0   c1.457,0,1.825-0.72,1.825-1.99C121.758,136.268,121.758,125.408,121.758,123.309z"
        fill="#FFFFFF" />
      <path
        d="M164.663,86.007h-11.204l-0.008-14.8c0-0.558-0.297-0.847-0.941-0.847h-15.255   c-0.595,0-0.923,0.267-0.923,0.831v15.293c0,0-7.641,1.85-8.156,1.999c-0.51,0.148-0.902,0.619-0.902,1.191v9.605   c0,0.69,0.565,1.246,1.239,1.246h7.819c0,0,0,10.044,0,23.113c0,17.158,12.05,18.851,20.167,18.851   c3.712,0,8.147-1.189,8.899-1.473c0.432-0.156,0.697-0.619,0.697-1.112l0.008-10.569c0-0.697-0.578-1.246-1.235-1.246   c-0.652,0-2.322,0.267-4.044,0.267c-5.501,0-7.365-2.555-7.365-5.868c0-3.307,0-21.962,0-21.962h11.204   c0.681,0,1.238-0.556,1.238-1.246V87.244C165.901,86.547,165.344,86.007,164.663,86.007z"
        fill="#FFFFFF" />
    </g>
  </symbol> -->
  <symbol id="javascript" viewBox="0 0 32 32">
    <path
      d="M18.774,19.7a3.727,3.727,0,0,0,3.376,2.078c1.418,0,2.324-.709,2.324-1.688,0-1.173-.931-1.589-2.491-2.272l-.856-.367c-2.469-1.052-4.11-2.37-4.11-5.156,0-2.567,1.956-4.52,5.012-4.52A5.058,5.058,0,0,1,26.9,10.52l-2.665,1.711a2.327,2.327,0,0,0-2.2-1.467,1.489,1.489,0,0,0-1.638,1.467c0,1.027.636,1.442,2.1,2.078l.856.366c2.908,1.247,4.549,2.518,4.549,5.376,0,3.081-2.42,4.769-5.671,4.769a6.575,6.575,0,0,1-6.236-3.5ZM6.686,20c.538.954,1.027,1.76,2.2,1.76,1.124,0,1.834-.44,1.834-2.15V7.975h3.422V19.658c0,3.543-2.078,5.156-5.11,5.156A5.312,5.312,0,0,1,3.9,21.688Z"
      style="fill:#fbc02d" />
  </symbol>
  <symbol id="arrow" viewBox="0 0 533.333 533.333">
    <path d="M266.667,0L0,266.667h166.667v266.665l200,0.001V266.667h166.667L266.667,0z" />
  </symbol>
  <symbol id="webpack" viewBox="0 0 32 32">
    <path
      d="M29.54 24.663L16.57 32v-5.713l8.08-4.446zm.888-.803V8.52l-4.744 2.742v9.862zm-27.966.803L15.43 32v-5.713L7.345 21.84zm-.888-.803V8.52l4.744 2.742v9.862zM2.13 7.524L15.43 0v5.522L6.84 10.25zm27.74 0L16.57 0v5.522l8.59 4.723z"
      fill="#8ed6fb" />
    <path
      d="M15.43 25.237L7.456 20.85v-8.684l7.974 4.604zm1.14 0l7.975-4.383v-8.69L16.57 16.77zm-.57-8.8zm-8.004-5.275L16 6.763l8.004 4.4L16 15.783z"
      fill="#1c78c0" />
  </symbol>
  <symbol id="mongodb" viewBox="0 0 128 128">
    <path fill-rule="evenodd" clip-rule="evenodd" fill="#4FAA41"
      d="M82.803 34.23c-2.604-8.108-6.781-15.284-12.667-21.459-1.488-1.562-3.142-2.993-4.18-4.936-.656-1.23-1.281-2.477-1.92-3.715l-.406-1.021-.113.402c-.053 2.02-1.197 3.389-2.621 4.668-1.604 1.438-3.096 3-4.636 4.509l-4.736 6.229-3.829 7.042-2.561 6.915-.077.107c-1.409 4.629-2.104 9.389-2.445 14.195-.129 1.807.019 3.639.12 5.455.145 2.596.596 5.147 1.272 7.66 2.457 9.126 7.444 16.695 14.263 23.127 1.266 1.195 2.635 2.282 3.956 3.418l.585 2.008.544 3.116.26 3.253c-.003.66-.03 1.323.009 1.981.011.169.231.325.355.487l1.104.388 1.149.447-.197-2.891-.009-2.848.397-4.338.288-.944.825-1.461c1.018-.818 2.109-1.562 3.036-2.473 1.677-1.647 3.351-3.317 4.852-5.122 1.947-2.341 3.623-4.896 4.969-7.636.899-1.833 1.747-3.703 2.448-5.618.618-1.688 1.001-3.463 1.488-5.2l.128-.375c1.005-4.688 1.174-9.424.805-14.19-.297-3.841-1.2-7.548-2.456-11.18zm-19.9 50.275c.154-.771.345-1.538.484-2.312-.139.774-.329 1.541-.484 2.312zm3.417.532l-.646-1.415.646 1.415.949.811-.949-.811zM106.474 102.964c-.826-1.583-2.038-2.785-3.64-3.574-1.342-.66-2.785-.95-4.269-.992-1.112-.032-2.228.025-3.342.039-.989.012-1.979.029-2.968.02-1.163-.012-2.326-.047-3.489-.08-.193-.006-.33.033-.42.229-.141.305-.308.599-.481.933l.194.062c.577.102 1.157.189 1.731.304.738.147 1.07.571 1.104 1.193.05.886.07 1.774.067 2.662-.015 3.514-.04 7.028-.066 10.541-.002.232-.006.474-.069.692-.073.252-.152.578-.34.702-.325.216-.728.362-1.115.425-.561.092-.655.117-.83.669l-.076.276c-.084.301-.039.36.275.363 1.802.02 3.603.059 5.404.053 1.643-.006 3.286.094 4.923-.215 1.547-.291 2.991-.801 4.309-1.664 1.71-1.121 2.94-2.619 3.589-4.574.524-1.579.641-3.19.463-4.841-.121-1.139-.427-2.212-.954-3.223zm-3.157 9.661c-.964 1.794-2.402 2.992-4.457 3.308-1.287.197-2.576.14-3.803-.347-.777-.308-1.066-.979-1.09-1.772-.023-.777-.032-1.555-.033-2.332-.004-2.734-.004-5.468 0-8.201.002-.861.017-1.724.031-2.586.01-.606.137-.809.728-.858 2.596-.218 5.073.062 7.13 1.889 1.272 1.13 1.996 2.571 2.297 4.226.125.69.163 1.396.241 2.096-.063 1.598-.279 3.153-1.044 4.577zM125.106 109.664c-.512-1.246-1.482-2.027-2.701-2.527-.416-.171-.845-.312-1.294-.478l.157-.1c.485-.311 1.025-.562 1.443-.945 1.016-.931 1.438-2.102 1.24-3.493-.188-1.323-.848-2.294-2.027-2.924-1.07-.57-2.224-.778-3.418-.777-2.066.002-4.133.033-6.199.037-.712.001-1.424-.052-2.136-.062-.138-.002-.343.033-.402.125-.163.25-.271.538-.387.816-.067.162-.001.251.184.275.497.068.993.153 1.491.227.688.103 1.021.461 1.063 1.154l.009.411c.001 2.155.008 4.31-.001 6.465-.011 2.151-.035 4.304-.061 6.456-.003.271-.04.543-.079.812-.059.406-.276.686-.692.774l-1.177.232c-.139.028-.34.024-.397.11-.216.323-.39.676-.366 1.102l.121.033 3.953.097.793-.003c1.368-.016 2.738.011 4.104-.059 1.479-.074 2.868-.513 4.152-1.268 1.367-.805 2.419-1.866 2.793-3.462.24-1.019.241-2.044-.166-3.028zm-10.043-9.181c.006-.433.197-.621.627-.632 1.059-.029 2.111-.023 3.133.342 1.322.472 2.135 1.612 2.12 3.005-.007.535.001 1.065-.196 1.579-.389 1.012-1.135 1.546-2.193 1.65-.552.056-1.109.062-1.601.088l-1.642-.072c-.218-.008-.313-.104-.312-.328l.064-5.632zm6.806 13.494c-.529 1.151-1.493 1.756-2.7 1.966-.965.168-1.938.119-2.892-.127-.706-.181-.994-.748-1.135-1.377-.095-.421-.079-.922-.087-1.36-.013-.676-.003-2.079-.003-2.079h-.014c0-1 .003-1.866-.003-2.825-.001-.207.034-.31.287-.302.898.027 1.799.042 2.697.077.803.031 1.555.269 2.262.65 1.076.58 1.724 1.468 1.902 2.688.136.925.078 1.835-.314 2.689zM23.282 115.055l.019-5.437c.003-.818-.101-1.62-.369-2.396-.739-2.137-2.777-3.11-4.899-2.343-.965.349-1.83.878-2.656 1.478-.481.35-.481.35-.829-.149-.985-1.412-2.392-1.895-4.03-1.374-1.059.336-1.985.911-2.862 1.579-.082.062-.247.131-.296.094-.082-.061-.139-.206-.137-.315l.06-.966c.005-.203-.034-.407-.054-.62-.396.137-.712.274-1.043.354-1.023.25-2.053.48-3.082.715-.249.057-.512.132-.536.418-.025.281.246.328.456.412.442.178.881.367 1.318.559.367.162.504.455.502.849-.007 1.685.004 3.368-.006 5.053-.004.685-.036 1.369-.067 2.054-.028.607-.235.861-.823 1.014-.312.082-.629.137-.943.211-.069.016-.187.06-.188.094-.013.297-.029.601.021.89.01.052.324.052.498.072l.117-.007c1.212-.018 2.424-.037 3.637-.05.643-.007 1.285-.001 1.983-.001l.075-.97c-.4-.073-.757-.128-1.109-.205-.549-.12-.783-.411-.797-.965l-.01-.793c-.006-2.057-.014-4.113-.014-6.17 0-.299.124-.536.387-.715.557-.376 1.145-.675 1.796-.842 1.372-.351 2.562.137 3.09 1.304.167.368.298.775.335 1.175.194 2.062.11 4.126-.007 6.188-.025.445-.234.669-.673.778l-1.032.218c-.083.021-.204-.035-.21.034-.023.285-.01.722-.01.722h.246l3.142.103c.861-.002 1.723.102 2.583.124.154.003.291.026.3-.152.014-.282.002-.547-.011-.829l-.164-.029-.885-.199c-.597-.141-.803-.368-.805-.972-.007-1.489.013-2.977 0-4.465-.007-.851-.04-1.702-.095-2.551-.015-.226.02-.374.2-.501.53-.378 1.103-.669 1.732-.835 1.935-.51 3.519.551 3.619 2.546.098 1.924.057 3.855.042 5.783-.005.671-.227.874-.888 1.054l-.228.059c-.677.162-.671.162-.631.881.013.225.075.283.315.277 1.379-.031 2.758-.039 4.137-.051.564-.005 1.128 0 1.742 0l.125-.936c-.539-.143-1.036-.249-1.516-.406-.424-.144-.574-.4-.572-.848zM70.771 106.814c.568-.527.572-1.223.413-1.996-.45.471-.954.688-1.529.729-.771.055-1.528-.012-2.246-.319-1.942-.834-3.854-.775-5.76.14-1.603.768-2.589 1.965-2.688 3.78-.063 1.163.155 2.264.931 3.189.465.554 1.062.913 1.735 1.161.29.107.312.245.069.43-.178.137-.367.261-.557.38-.406.255-.815.507-1.226.754-.241.146-.323.332-.244.617.231.838.826 1.322 1.57 1.675l.271.189-.237.237c-.729.591-1.487 1.149-2.185 1.776-.586.527-.775 1.233-.598 2.012.357 1.555 1.388 2.517 2.851 2.959 2.557.774 4.958.33 7.147-1.185 1.298-.899 2.229-2.069 2.512-3.679.317-1.809-.688-3.379-2.487-3.703-1.19-.216-2.408-.278-3.612-.416-.562-.064-1.132-.102-1.679-.231-.465-.11-.696-.489-.653-.859.043-.364.43-.703.873-.738.892-.072 1.766-.211 2.588-.587 2.178-.996 3.189-2.74 2.936-5.088-.033-.316-.105-.628-.17-.996.697.117 1.41.294 1.975-.231zm-6.609 11.017c.886.026 1.894.081 2.868.366.857.25 1.562.688 1.77 1.645.251 1.156-.305 2.306-1.424 2.924-1.048.578-2.186.626-3.34.507-.988-.102-1.877-.444-2.589-1.174-.938-.961-.943-2.291-.004-3.249.839-.856 1.288-1.033 2.719-1.019zm2.217-6.962c-.516 1.651-2.018 1.879-3.195 1.351-1.003-.449-1.44-1.333-1.669-2.342-.089-.388-.11-.791-.162-1.188.021-.569.115-1.115.36-1.627.751-1.577 2.596-1.483 3.617-.769.438.306.743.722.934 1.215.424 1.104.467 2.229.115 3.36zM57.009 116.132c-.355-.057-.712-.131-1.057-.236-.608-.186-.682-.3-.689-.943-.018-1.792-.03-3.584-.05-5.375-.01-.806-.106-1.601-.353-2.371-.65-2.03-2.641-3.12-4.633-2.521-1.104.333-2.052.952-2.935 1.679l-.322.247.001-.331c.021-.381.062-.762.059-1.143-.002-.199-.078-.399-.115-.574-.753.227-1.428.455-2.117.629-.691.174-1.396.292-2.095.434-.347.07-.602.28-.596.519.009.337.288.402.532.503.442.181.883.364 1.32.558.312.139.439.397.436.732-.022 2.329-.036 4.659-.07 6.989-.01.736-.196.93-.92 1.092l-.316.063c-.67.115-.689.142-.643.849l.004.117c-.008.272.111.36.391.357 1.78-.021 3.561-.031 5.341-.024.763.003.845-.057.829-.841l-.036-.337c-.436-.073-.853-.126-1.261-.216-.427-.095-.58-.27-.62-.704-.037-.397-.049-.8-.053-1.2-.02-1.831-.036-3.662-.045-5.492-.002-.461.083-.889.507-1.186.643-.449 1.347-.709 2.125-.762 1.588-.109 2.795.832 2.881 2.415.106 1.953.074 3.913.099 5.87.002.146-.024.293-.044.438-.038.286-.178.501-.468.575-.283.074-.57.14-.859.184-.431.064-.44.061-.473.496l.011.293c.051.506.052.491.564.486 1.722-.014 3.443-.023 5.164-.021.72.002.771-.032.777-.774l-.002-.176c.011-.19-.074-.267-.269-.298zM81.061 104.809c-1.805-.441-3.517-.113-5.143.728-1.58.817-2.636 2.08-3.038 3.824-.406 1.763-.212 3.483.567 5.12.507 1.063 1.287 1.885 2.349 2.419 2.486 1.252 5.527.684 7.477-.991 1.539-1.321 2.104-3.08 2.138-5.257-.021-.218-.042-.638-.1-1.054-.327-2.37-1.968-4.231-4.25-4.789zm1.367 9.155c-.479 1.886-2.11 2.724-3.95 2.076-.939-.33-1.641-.961-2.113-1.814-1.086-1.96-1.295-4.044-.677-6.182.412-1.424 1.584-2.203 2.978-2.105 1.246.087 2.204.685 2.907 1.699.741 1.07 1.027 2.287 1.103 3.565.013.205.002.41.002.616l.088.01c-.11.713-.162 1.44-.338 2.135zM35.664 104.778c-1.899-.434-3.678-.005-5.326.96-1.425.834-2.346 2.08-2.699 3.708-.331 1.521-.196 3.016.343 4.473.328.888.825 1.669 1.554 2.278 1.535 1.281 3.329 1.605 5.238 1.248 1.616-.303 3.036-1.021 4.068-2.364.966-1.256 1.334-2.698 1.372-4.261-.057-.495-.071-.999-.176-1.482-.522-2.411-1.932-4.003-4.374-4.56zm1.549 9.18c-.463 1.876-2.12 2.735-3.947 2.087-1.173-.417-1.937-1.276-2.42-2.377-.774-1.769-.932-3.61-.431-5.476.384-1.427 1.541-2.478 3.312-2.226 1.087.154 1.935.709 2.567 1.592.854 1.191 1.135 2.555 1.174 3.988v.293l.072.011c-.105.704-.157 1.42-.327 2.108z" />
  </symbol>
  <symbol id="eslint" viewBox="0 0 64 64">
    <path
      d="M19.353 24.35l12.155-7.018a.98.98 0 0 1 .983 0l12.156 7.018c.304.176.492.5.492.852V39.24c0 .35-.188.676-.492.852L32.49 47.1a.98.98 0 0 1-.983 0L19.353 40.1c-.304-.176-.492-.5-.492-.852V25.203c0-.35.188-.676.492-.852"
      fill="#8080f2" />
    <path
      d="M63.604 30.744L49.08 5.478c-.527-.914-1.5-1.578-2.556-1.578H17.477c-1.055 0-2.03.674-2.557 1.587L.396 30.7a3 3 0 0 0 0 2.98L14.92 58.73c.528.914 1.502 1.38 2.557 1.38h29.047c1.055 0 2.03-.453 2.557-1.367l14.523-25.1a2.85 2.85 0 0 0 0-2.898m-12.026 12.15c0 .37-.224.715-.546.9l-18.5 10.673a1.05 1.05 0 0 1-1.047 0L12.972 43.795c-.322-.186-.547-.53-.547-.9V21.547a1.06 1.06 0 0 1 .544-.9l18.5-10.673a1.05 1.05 0 0 1 1.046 0L51.03 20.646c.322.186.55.53.55.9z"
      fill="#4b32c3" />
  </symbol>
  <symbol id="scss" viewBox="0 0 32 32">
    <path
      d="M16.171,18.7c-.481.221-1.008.509-2.063,1.088-.4.225-.818.45-1.207.662-.027-.027-.055-.061-.082-.089-2.087-2.23-5.947-3.805-5.783-6.8.061-1.091.436-3.955,7.413-7.433,5.742-2.83,10.311-2.046,11.1-.307C26.683,8.3,23.1,12.913,17.17,13.582a4.469,4.469,0,0,1-3.751-.948c-.314-.341-.361-.361-.477-.293-.191.1-.068.409,0,.586a3.5,3.5,0,0,0,2.141,1.684,11.4,11.4,0,0,0,6.956-.689c3.594-1.391,6.4-5.258,5.578-8.5-.825-3.287-6.281-4.371-11.443-2.537a26,26,0,0,0-8.79,5.047c-2.844,2.66-3.294,4.972-3.11,5.94.662,3.437,5.4,5.674,7.3,7.331-.1.055-.184.1-.259.143-.948.471-4.562,2.36-5.463,4.358-1.023,2.264.164,3.887.948,4.105a5.832,5.832,0,0,0,6.281-2.544,6.3,6.3,0,0,0,.559-5.8,5.03,5.03,0,0,1,.716-.477c.484-.286.945-.568,1.354-.786l0,0a10.475,10.475,0,0,1,4.475-.989c3.246.382,3.887,2.407,3.764,3.26a2.157,2.157,0,0,1-1.03,1.459c-.225.143-.3.191-.28.293.027.15.136.143.327.116a2.535,2.535,0,0,0,1.766-2.257c.1-2-1.807-4.194-5.183-4.174a7.753,7.753,0,0,0-2.946.587q-.225.093-.437.2Zm-4.825,7.839c-1.078,1.173-2.578,1.616-3.226,1.241-.7-.4-.423-2.135.9-3.376a17.18,17.18,0,0,1,2.53-1.889c.157-.1.389-.232.668-.4.048-.027.075-.041.075-.041l.164-.1A4.658,4.658,0,0,1,11.346,26.539Z"
      style="fill:#cd6799" />
  </symbol>
  <symbol id="redux" viewBox="0 0 32 32">
    <path
      d="M21.7868 21.556C22.8939 21.4433 23.7338 20.505 23.6956 19.3789C23.6575 18.253 22.703 17.3522 21.5577 17.3522H21.4814C20.2978 17.3897 19.3817 18.3656 19.4199 19.5291C19.4581 20.0921 19.6871 20.58 20.0307 20.9178C18.7327 23.4326 16.7475 25.2717 13.7698 26.8106C11.7464 27.8615 9.6468 28.2369 7.54715 27.9742C5.82918 27.749 4.49301 26.9984 3.65301 25.7596C2.43144 23.9205 2.31695 21.9312 3.34773 19.942C4.07312 18.5157 5.21828 17.4647 5.94367 16.9392C5.79098 16.4513 5.56187 15.6256 5.44738 15.0251C-0.0882044 18.9661 0.484491 24.2959 2.16426 26.8106C3.42402 28.6873 5.98187 29.8509 8.80691 29.8509C9.57039 29.8509 10.3339 29.7757 11.0975 29.5882C15.9841 28.6498 19.6872 25.7972 21.7868 21.556ZM28.5059 16.9018C25.6045 13.5613 21.3287 11.7222 16.4421 11.7222H15.8314C15.4878 11.0466 14.7624 10.5961 13.9607 10.5961H13.8843C12.7009 10.6337 11.7848 11.6095 11.8229 12.7731C11.8611 13.8991 12.8154 14.7999 13.9607 14.7999H14.037C14.8769 14.7624 15.6023 14.2369 15.9077 13.5237H16.5948C19.4963 13.5237 22.2449 14.3494 24.7265 15.9634C26.6352 17.202 28.0096 18.816 28.7731 20.7677C29.4221 22.3441 29.3839 23.883 28.6967 25.1967C27.6278 27.1859 25.8336 28.2744 23.4666 28.2744C21.9395 28.2744 20.4889 27.824 19.7253 27.4862C19.3054 27.8615 18.5418 28.462 18.0073 28.8375C19.649 29.5881 21.3287 30.001 22.9321 30.001C26.597 30.001 29.3076 28.0116 30.3384 26.0224C31.4454 23.8454 31.369 20.0921 28.5059 16.9018ZM9.1123 22.1939C9.15051 23.3199 10.1049 24.2206 11.2502 24.2206H11.3266C12.51 24.1832 13.4262 23.2073 13.388 22.0438C13.3499 20.9177 12.3954 20.017 11.2502 20.017H11.1739C11.0975 20.017 10.9829 20.017 10.9067 20.0544C9.3414 17.5022 8.69242 14.7248 8.92152 11.7221C9.0741 9.47006 9.83769 7.51828 11.1739 5.9043C12.2809 4.51555 14.4188 3.83996 15.8696 3.80252C19.9162 3.7274 21.634 8.68179 21.7486 10.6711C22.2449 10.7837 23.0848 11.0465 23.6575 11.2342C23.1993 5.15382 19.3817 2.00098 15.7169 2.00098C12.2809 2.00098 9.1123 4.44067 7.85242 8.04387C6.09637 12.8481 7.24164 17.4647 9.37949 21.1055C9.18871 21.3682 9.0741 21.7811 9.1123 22.194V22.1939Z"
      fill="#764ABC" />
  </symbol>
  <symbol id="postgresql" viewBox="0 0 32 32">
    <path
      d="M24.295 9.929c-0.010 0.155-0.082 0.292-0.191 0.387l-0.001 0.001c-0.131 0.143-0.306 0.243-0.504 0.278l-0.005 0.001c-0.028 0.004-0.061 0.007-0.094 0.007h-0c-0.001 0-0.003 0-0.004 0-0.312 0-0.58-0.189-0.694-0.46l-0.002-0.005c-0.030-0.221 0.33-0.388 0.701-0.44s0.764 0.011 0.794 0.231zM14.385 10.443c-0.121 0.311-0.418 0.528-0.766 0.528-0.004 0-0.007-0-0.011-0h0.001c-0 0-0 0-0 0-0.036 0-0.070-0.003-0.105-0.007l0.004 0c-0.261-0.047-0.483-0.191-0.63-0.392l-0.002-0.003c-0.082-0.094-0.132-0.219-0.132-0.354 0-0 0-0.001 0-0.001v0c0.012-0.077 0.055-0.143 0.115-0.185l0.001-0.001c0.152-0.084 0.334-0.133 0.528-0.133 0.083 0 0.164 0.009 0.242 0.026l-0.007-0.001c0.395 0.055 0.803 0.242 0.764 0.523zM25.403 18.086l-0.107-0.134-0.044-0.055c0.457-0.846 0.725-1.853 0.725-2.921 0-0.488-0.056-0.962-0.162-1.418l0.008 0.042c-0.070-0.453-0.111-0.976-0.111-1.508 0-0.007 0-0.014 0-0.021v0.001c0.023-0.501 0.076-0.97 0.158-1.429l-0.010 0.066c0.089-0.464 0.14-0.998 0.14-1.544 0-0.051-0-0.101-0.001-0.151l0 0.008c0.012-0.049 0.019-0.104 0.019-0.162 0-0.027-0.002-0.053-0.004-0.079l0 0.003c-0.4-1.58-1.151-2.949-2.168-4.073l0.007 0.008c-0.911-1.068-2.031-1.929-3.3-2.523l-0.060-0.025c0.696-0.149 1.496-0.234 2.316-0.234 0.075 0 0.15 0.001 0.225 0.002l-0.011-0c0.045-0.001 0.097-0.002 0.15-0.002 2.378 0 4.496 1.109 5.866 2.838l0.012 0.016c0.028 0.036 0.056 0.077 0.080 0.12l0.003 0.005c0.904 1.694-0.345 7.842-3.732 13.172zM25.117 9.322c-0.016 0.455-0.064 0.886-0.14 1.307l0.008-0.055c-0.078 0.425-0.134 0.931-0.157 1.445l-0.001 0.025c-0 0.017-0 0.036-0 0.056 0 0.567 0.042 1.124 0.124 1.668l-0.008-0.061c0.085 0.377 0.134 0.809 0.134 1.254 0 0.763-0.144 1.493-0.407 2.162l0.014-0.040c-0.076-0.131-0.155-0.289-0.224-0.453l-0.011-0.029c-0.066-0.159-0.209-0.416-0.406-0.77-0.769-1.38-2.571-4.611-1.649-5.929 0.474-0.678 1.676-0.707 2.722-0.579zM24.406 20.907c-0.051-1.039 0.336-1.148 0.746-1.263q0.085-0.023 0.169-0.051c0.050 0.044 0.105 0.087 0.162 0.125l0.005 0.003c0.62 0.273 1.342 0.431 2.102 0.431 0.592 0 1.161-0.096 1.693-0.274l-0.038 0.011c-0.344 0.293-0.736 0.544-1.16 0.738l-0.031 0.013c-0.644 0.264-1.391 0.429-2.173 0.454l-0.010 0c-0.119 0.018-0.256 0.029-0.395 0.029-0.386 0-0.754-0.080-1.087-0.224l0.018 0.007zM23.293 22.933c-0.021 0.221-0.045 0.47-0.077 0.745l-0.182 0.548c-0.014 0.040-0.022 0.086-0.023 0.134v0c0.001 0.027 0.001 0.058 0.001 0.089 0 0.355-0.053 0.699-0.151 1.022l0.006-0.025c-0.116 0.389-0.196 0.84-0.223 1.305l-0.001 0.016c-0.052 1.684-1.355 3.047-3.008 3.194l-0.013 0.001c-1.894 0.406-2.23-0.621-2.526-1.527q-0.045-0.142-0.096-0.283c-0.16-0.652-0.252-1.401-0.252-2.171 0-0.36 0.020-0.715 0.059-1.065l-0.004 0.043c0.006-0.128 0.009-0.279 0.009-0.43 0-1.026-0.154-2.016-0.441-2.948l0.019 0.071q0.008-0.55 0.024-1.114c0-0.003 0-0.008 0-0.012 0-0.046-0.007-0.090-0.020-0.132l0.001 0.003c-0.014-0.1-0.033-0.188-0.058-0.273l0.003 0.013c-0.141-0.521-0.496-0.941-0.964-1.164l-0.011-0.005c-0.176-0.088-0.384-0.14-0.605-0.14-0.104 0-0.205 0.011-0.302 0.033l0.009-0.002c0.128-0.47 0.26-0.854 0.412-1.228l-0.026 0.073 0.066-0.177c0.074-0.2 0.167-0.407 0.266-0.626 0.546-1.124 0.865-2.445 0.865-3.841 0-0.938-0.144-1.842-0.411-2.692l0.017 0.063c-0.183-1.108-1.135-1.943-2.281-1.943-0.18 0-0.356 0.021-0.524 0.060l0.016-0.003c-0.796 0.104-1.516 0.338-2.171 0.682l0.035-0.017q-0.124 0.063-0.245 0.13c0.091-2.147 0.896-4.090 2.181-5.615l-0.012 0.014c0.118-0.119 0.242-0.232 0.37-0.338l0.009-0.007c0.069-0.014 0.13-0.042 0.182-0.081l-0.001 0.001c0.893-0.654 2.014-1.047 3.227-1.047 0.097 0 0.193 0.002 0.288 0.007l-0.013-0.001c0.526 0.008 1.034 0.044 1.534 0.108l-0.067-0.007c2.043 0.393 3.787 1.463 5.032 2.963l0.011 0.014c0.748 0.869 1.354 1.887 1.766 2.998l0.022 0.069c-0.257-0.069-0.552-0.109-0.856-0.109-0.983 0-1.868 0.416-2.49 1.081l-0.002 0.002c-1.24 1.773 0.679 5.215 1.601 6.869 0.169 0.303 0.315 0.565 0.361 0.676 0.26 0.601 0.587 1.118 0.98 1.577l-0.007-0.008c0.087 0.109 0.171 0.214 0.236 0.306-0.501 0.144-1.401 0.478-1.319 2.146-0.015 0.195-0.053 0.558-0.104 1.018-0.054 0.269-0.098 0.597-0.123 0.93l-0.002 0.028zM14.091 17.219l-0.066 0.176c-0.137 0.328-0.279 0.745-0.397 1.172l-0.019 0.081c-0.893-0.013-1.695-0.395-2.261-1.001l-0.002-0.002c-0.632-0.667-1.020-1.57-1.020-2.564 0-0.198 0.015-0.392 0.045-0.582l-0.003 0.021c0.097-0.72 0.153-1.551 0.153-2.396 0-0.502-0.020-0.999-0.058-1.491l0.004 0.065c-0.006-0.107-0.012-0.201-0.015-0.275 0.805-0.611 1.824-0.98 2.929-0.98 0.132 0 0.262 0.005 0.391 0.015l-0.017-0.001c0.554 0.129 0.971 0.588 1.037 1.153l0.001 0.006c0.238 0.728 0.375 1.566 0.375 2.435 0 1.266-0.291 2.464-0.809 3.532l0.021-0.048c-0.105 0.233-0.204 0.453-0.289 0.682zM11.474 22.203c-0.205-0.052-0.385-0.128-0.549-0.227l0.009 0.005c0.172-0.073 0.375-0.134 0.585-0.173l0.019-0.003c1.604-0.33 1.851-0.563 2.392-1.25 0.124-0.157 0.264-0.336 0.459-0.553 0.040-0.045 0.072-0.099 0.091-0.159l0.001-0.003c0.213-0.189 0.34-0.137 0.546-0.052 0.227 0.125 0.395 0.336 0.46 0.587l0.001 0.007c0.023 0.065 0.037 0.139 0.037 0.217 0 0.125-0.035 0.242-0.095 0.341l0.002-0.003c-0.645 0.882-1.676 1.449-2.839 1.449-0.4 0-0.785-0.067-1.144-0.191l0.025 0.007zM3.967 15.846c-0.651-1.985-1.181-4.34-1.494-6.764l-0.021-0.199c-0.061-0.322-0.095-0.693-0.095-1.071 0-1.806 0.789-3.427 2.041-4.537l0.006-0.005c2.295-1.623 6.048-0.676 7.633-0.163l-0.012 0.012c-1.535 1.872-2.466 4.292-2.466 6.928 0 0.090 0.001 0.18 0.003 0.27l-0-0.013c-0 0.103 0.008 0.249 0.020 0.449 0.033 0.41 0.052 0.888 0.052 1.371 0 0.802-0.052 1.592-0.154 2.367l0.010-0.091c-0.033 0.206-0.051 0.444-0.051 0.686 0 1.231 0.482 2.35 1.269 3.177l-0.002-0.002q0.151 0.158 0.315 0.297c-0.433 0.464-1.375 1.49-2.377 2.696-0.709 0.853-1.199 0.689-1.36 0.636-0.685-0.368-1.222-0.939-1.538-1.631l-0.009-0.022c-0.684-1.252-1.286-2.708-1.73-4.232l-0.039-0.157zM30.445 19.403c-0.019-0.057-0.043-0.106-0.072-0.151l0.002 0.003c-0.174-0.329-0.596-0.427-1.259-0.29-2.066 0.426-2.866 0.164-3.156-0.024 1.617-2.452 2.918-5.292 3.751-8.326l0.049-0.209c0.339-1.313 0.997-4.403 0.153-5.913-0.059-0.112-0.122-0.208-0.192-0.298l0.003 0.004c-1.563-1.955-3.948-3.196-6.623-3.196-0.076 0-0.152 0.001-0.227 0.003l0.011-0c-0.042-0.001-0.091-0.001-0.141-0.001-1.342 0-2.633 0.22-3.838 0.625l0.085-0.025q-0.321-0.060-0.645-0.102c-0.488-0.093-1.053-0.151-1.631-0.16l-0.008-0c-0.083-0.004-0.18-0.006-0.278-0.006-1.315 0-2.538 0.394-3.557 1.071l0.024-0.015c-1.071-0.401-5.984-2.056-9.025 0.098-1.489 1.27-2.426 3.147-2.426 5.244 0 0.405 0.035 0.802 0.102 1.188l-0.006-0.041c0.335 2.698 0.879 5.126 1.632 7.461l-0.079-0.284c0.493 1.716 1.103 3.201 1.852 4.6l-0.061-0.124c0.433 0.984 1.182 1.764 2.116 2.225l0.026 0.012c0.168 0.049 0.361 0.078 0.561 0.078 0.742 0 1.392-0.391 1.756-0.979l0.005-0.009c1.001-1.204 1.987-2.282 2.43-2.758 0.502 0.279 1.097 0.451 1.731 0.471l0.006 0 0.001 0.005q-0.158 0.188-0.309 0.382c-0.424 0.538-0.512 0.649-1.875 0.93-0.388 0.080-1.418 0.292-1.433 1.014-0 0.004-0 0.008-0 0.013 0 0.147 0.043 0.284 0.117 0.399l-0.002-0.003c0.312 0.395 0.751 0.678 1.254 0.788l0.015 0.003c0.399 0.13 0.859 0.205 1.335 0.205 1.1 0 2.106-0.398 2.884-1.058l-0.006 0.005c-0.024 0.418-0.037 0.908-0.037 1.401 0 1.753 0.171 3.467 0.496 5.125l-0.027-0.167c0.382 1.373 1.616 2.367 3.084 2.38h0.002c0.369-0.003 0.726-0.046 1.070-0.124l-0.033 0.006c1.919-0.171 3.431-1.705 3.567-3.619l0.001-0.012c0.188-1.088 0.502-3.593 0.673-5.125 0.008-0.065 0.034-0.123 0.072-0.171l-0.001 0.001c0.001-0.001 0.087-0.059 0.534 0.038l0.055 0.009 0.317 0.028 0.019 0.001c0.095 0.004 0.207 0.007 0.319 0.007 1.024 0 2.002-0.2 2.895-0.564l-0.051 0.018c0.805-0.373 2.256-1.29 1.993-2.087z"
      fill="#123123">
    </path>
  </symbol>
  <symbol id="git" viewBox="0 0 24 24">
    <path fill-rule="evenodd" clip-rule="evenodd"
      d="M13.4142 3.82843C12.6332 3.04738 11.3668 3.04738 10.5858 3.82843L9.91421 4.5L11.482 6.06774C11.6472 6.02356 11.8208 6 12 6C13.1046 6 14 6.89543 14 8C14 8.17916 13.9764 8.35282 13.9323 8.51804L15.982 10.5677C16.1472 10.5236 16.3208 10.5 16.5 10.5C17.6046 10.5 18.5 11.3954 18.5 12.5C18.5 13.6046 17.6046 14.5 16.5 14.5C15.3954 14.5 14.5 13.6046 14.5 12.5C14.5 12.3208 14.5236 12.1472 14.5677 11.982L13 10.4142V15.2676C13.5978 15.6134 14 16.2597 14 17C14 18.1046 13.1046 19 12 19C10.8954 19 10 18.1046 10 17C10 16.2597 10.4022 15.6134 11 15.2676V9.73244C10.4022 9.38663 10 8.74028 10 8C10 7.82084 10.0236 7.64718 10.0677 7.48196L8.5 5.91421L3.82843 10.5858C3.04738 11.3668 3.04738 12.6332 3.82843 13.4142L10.5858 20.1716C11.3668 20.9526 12.6332 20.9526 13.4142 20.1716L20.1716 13.4142C20.9526 12.6332 20.9526 11.3668 20.1716 10.5858L13.4142 3.82843ZM9.17157 2.41421C10.7337 0.852115 13.2663 0.852119 14.8284 2.41422L21.5858 9.17157C23.1479 10.7337 23.1479 13.2663 21.5858 14.8284L14.8284 21.5858C13.2663 23.1479 10.7337 23.1479 9.17157 21.5858L2.41421 14.8284C0.852115 13.2663 0.852119 10.7337 2.41422 9.17157L9.17157 2.41421Z"
      fill="#000000" />
  </symbol>
</svg>
